<svg width="46" height="35" viewBox="0 0 46 35" fill="none" xmlns="http://www.w3.org/2000/svg">
<path d="M39.6271 4.26904C35.6462 1.06801 29.3487 0.526494 29.0811 0.503495C28.6609 0.467951 28.2615 0.706303 28.0901 1.09101C28.0775 1.1161 27.9395 1.43181 27.7869 1.92315C30.4192 2.3664 33.6537 3.26127 36.5808 5.07818C37.0492 5.3688 37.1934 5.98559 36.9028 6.45602C36.7147 6.76128 36.3864 6.92854 36.0519 6.92854C35.8721 6.92854 35.6902 6.88045 35.525 6.778C30.4945 3.65852 24.2095 3.50171 23.0011 3.50171C21.7926 3.50171 15.5055 3.65852 10.4792 6.778C10.0088 7.07072 9.3941 6.92436 9.10138 6.45602C8.80867 5.98559 8.95503 5.37089 9.42337 5.07818C12.3505 3.26336 15.5829 2.3664 18.2173 1.92315C18.0626 1.42972 17.9246 1.1161 17.9141 1.09101C17.7406 0.706303 17.3433 0.46377 16.921 0.505586C16.6555 0.526494 10.358 1.06801 6.3227 4.31503C4.21517 6.26157 0.00219727 17.6523 0.00219727 27.5C0.00219727 27.6735 0.0481949 27.845 0.133918 27.9955C3.04223 33.1033 10.9747 34.4415 12.7833 34.5C12.7937 34.5 12.8042 34.5 12.8147 34.5C13.1345 34.5 13.4356 34.3474 13.6238 34.0881L15.4533 31.575C10.521 30.2996 8.00162 28.1356 7.85526 28.008C7.44128 27.6422 7.40156 27.0107 7.76745 26.5968C8.13334 26.1828 8.76267 26.143 9.17665 26.5068C9.23729 26.5612 13.8768 30.4982 23.0011 30.4982C32.1421 30.4982 36.7816 26.5445 36.8276 26.5048C37.2415 26.1451 37.873 26.1828 38.2368 26.5988C38.6006 27.0128 38.5608 27.6422 38.1489 28.006C38.0026 28.1356 35.4832 30.2975 30.551 31.5729L32.3804 34.086C32.5686 34.3453 32.8697 34.4979 33.1896 34.4979C33.2 34.4979 33.2105 34.4979 33.2209 34.4979C35.0295 34.4415 42.962 33.1033 45.8703 27.9934C45.9539 27.8429 45.9999 27.6735 45.9999 27.5C45.9999 17.6523 41.7869 6.26157 39.6271 4.26904ZM16.5007 23.5003C14.5688 23.5003 13.0007 21.7084 13.0007 19.5006C13.0007 17.2927 14.5667 15.5008 16.5007 15.5008C18.4347 15.5008 20.0008 17.2927 20.0008 19.5006C20.0008 21.7084 18.4347 23.5003 16.5007 23.5003ZM29.5014 23.5003C27.5695 23.5003 26.0014 21.7084 26.0014 19.5006C26.0014 17.2927 27.5674 15.5008 29.5014 15.5008C31.4333 15.5008 33.0014 17.2927 33.0014 19.5006C33.0014 21.7084 31.4333 23.5003 29.5014 23.5003Z" fill="white"/>
</svg>
