<svg width="24" height="25" viewBox="0 0 24 25" fill="none" xmlns="http://www.w3.org/2000/svg">
<path d="M23.4464 10.1692L12.8078 0.476399C12.4619 0.161294 12.0065 -0.00923678 11.5366 0.000452423C11.0668 0.0101416 10.6189 0.1993 10.2866 0.528391L0.502125 10.2181L0 10.7154V25.0001H9.42857V16.0872H14.5714V25.0001H24V10.6736L23.4464 10.1692ZM11.5735 1.69778C11.5886 1.69778 11.5792 1.70101 11.5728 1.70733C11.5661 1.70101 11.5584 1.69778 11.5735 1.69778ZM22.2857 23.3024H16.2857V16.0872C16.2857 15.637 16.1051 15.2051 15.7836 14.8868C15.4621 14.5684 15.0261 14.3895 14.5714 14.3895H9.42857C8.97392 14.3895 8.53788 14.5684 8.21639 14.8868C7.8949 15.2051 7.71429 15.637 7.71429 16.0872V23.3024H1.71429V11.4186L11.5735 1.72881C11.5742 1.72818 11.5742 1.72759 11.5747 1.72696L22.2857 11.4186V23.3024Z" fill="#FFA600"/>
</svg>
