<svg width="20" height="19" viewBox="0 0 20 19" fill="none" xmlns="http://www.w3.org/2000/svg">
<path d="M2.54783 9.5613L5.6591 6.45004L7.21473 8.00567L4.10346 11.1169C2.82006 12.4003 2.82006 14.5004 4.10346 15.7838C5.38686 17.0672 7.48697 17.0672 8.77037 15.7838L11.8816 12.6726L13.4373 14.2282L10.326 17.3395C8.17922 19.4863 4.6946 19.4863 2.54783 17.3395C0.40105 15.1927 0.40105 11.7081 2.54783 9.5613ZM13.4373 11.1169L16.5485 8.00567C17.8319 6.72227 17.8319 4.62216 16.5485 3.33877C15.2651 2.05537 13.165 2.05537 11.8816 3.33877L8.77037 6.45004L7.21473 4.8944L10.326 1.78313C12.4728 -0.363646 15.9574 -0.363646 18.1042 1.78313C20.251 3.92991 20.251 7.41453 18.1042 9.5613L14.9929 12.6726L13.4373 11.1169ZM12.6595 5.67222L6.43691 11.8948L7.99255 13.4504L14.2151 7.22785L12.6595 5.67222Z" fill="#2D86D8"/>
</svg>
