<svg width="24" height="25" viewBox="0 0 24 25" fill="none" xmlns="http://www.w3.org/2000/svg">
<path d="M5.9998 20.8334H10.3998C10.718 20.833 11.023 20.7012 11.2479 20.4669C11.4729 20.2325 11.5994 19.9148 11.5998 19.5834V8.75006C11.5994 8.41866 11.4729 8.10094 11.2479 7.8666C11.023 7.63227 10.718 7.50045 10.3998 7.50006H5.9998C5.68166 7.50045 5.37665 7.63227 5.15169 7.8666C4.92672 8.10094 4.80018 8.41866 4.7998 8.75006V19.5834C4.80018 19.9148 4.92672 20.2325 5.15169 20.4669C5.37665 20.7012 5.68166 20.833 5.9998 20.8334ZM6.3998 9.16673H9.9998V19.1667H6.3998V9.16673Z" fill="white"/>
<path d="M20.3998 6.10352e-05H15.9998C15.6817 0.000446996 15.3766 0.132267 15.1517 0.366604C14.9267 0.600941 14.8002 0.918659 14.7998 1.25006V19.5834C14.8002 19.9148 14.9267 20.2325 15.1517 20.4668C15.3766 20.7012 15.6817 20.833 15.9998 20.8334H20.3998C20.718 20.833 21.023 20.7012 21.2479 20.4668C21.4729 20.2325 21.5994 19.9148 21.5998 19.5834V1.25006C21.5994 0.918659 21.4729 0.600941 21.2479 0.366604C21.023 0.132267 20.718 0.000446996 20.3998 6.10352e-05ZM19.9998 19.1667H16.3998V1.66673H19.9998V19.1667Z" fill="white"/>
<path d="M1.6 6.10352e-05H0V25.0001H24V23.3334H1.6V6.10352e-05Z" fill="white"/>
</svg>
