<svg width="24" height="25" viewBox="0 0 24 25" fill="none" xmlns="http://www.w3.org/2000/svg">
<path d="M3.49058 19.9999H24V6.10352e-05H3.43398C2.52413 0.00275274 1.65238 0.336515 1.00902 0.928495C0.365658 1.52048 0.00292534 2.3226 0 3.15978V21.5754H0.000622731C0.000622731 21.5833 0 21.5911 0 21.599C0 23.4428 1.57257 25.0001 3.43398 25.0001H24V23.3332H3.43398C2.58475 23.3332 1.81132 22.5066 1.81132 21.5989C1.81132 20.7322 2.58028 19.9999 3.49058 19.9999ZM18.1132 1.68406V10.6848L15.3736 8.47183L12.6792 10.6719V1.68406H18.1132ZM10.8679 1.66672V12.9166H12.6589L15.3802 10.6948L18.1305 12.9166H19.9245V1.66672H22.1887V18.3333H5.43849L5.43396 1.66672H10.8679ZM3.43398 1.66672H3.62264L3.62694 18.3333H3.49036C2.90139 18.3334 2.32264 18.4749 1.81132 18.7439V3.1728C1.80994 2.77523 1.98 2.39338 2.2842 2.11103C2.5884 1.82868 3.0019 1.66889 3.43398 1.66672Z" fill="white"/>
</svg>
