<svg width="34" height="35" viewBox="0 0 34 35" fill="none" xmlns="http://www.w3.org/2000/svg">
<path d="M22.2182 0.5H11.7816C2.25762 0.5 -0.00012207 2.75774 -0.00012207 12.2817V22.7183C-0.00012207 32.2423 2.25762 34.5 11.7816 34.5H22.2182C31.7421 34.5 33.9999 32.2423 33.9999 22.7183V12.2817C33.9999 2.75774 31.7198 0.5 22.2182 0.5ZM27.4476 24.754H24.9795C24.0446 24.754 23.7566 24.0124 22.0748 22.3082C20.6139 20.8919 19.9668 20.7039 19.6066 20.7039C19.0977 20.7039 18.9532 20.8473 18.9532 21.5453V23.7755C18.9532 24.3736 18.7652 24.7327 17.1821 24.7327C14.5642 24.7327 11.6594 23.1497 9.62264 20.2003C6.55105 15.8781 5.71064 12.6408 5.71064 11.9715C5.71064 11.6113 5.85407 11.2745 6.54574 11.2745H9.01916C9.64495 11.2745 9.88295 11.5624 10.1262 12.2318C11.3491 15.7623 13.3859 18.8552 14.2263 18.8552C14.5365 18.8552 14.68 18.7117 14.68 17.9202V14.2738C14.5854 12.5919 13.7004 12.4474 13.7004 11.8503C13.7004 11.5624 13.9384 11.2745 14.3198 11.2745H18.2095C18.7354 11.2745 18.9288 11.5624 18.9288 12.1818V17.101C18.9288 17.6323 19.1668 17.8203 19.3102 17.8203C19.6205 17.8203 19.8861 17.6323 20.4609 17.0564C22.2373 15.0643 23.5101 11.9927 23.5101 11.9927C23.6759 11.6325 23.9638 11.2957 24.5896 11.2957H27.063C27.8046 11.2957 27.9704 11.6772 27.8046 12.2084C27.4944 13.647 24.4674 17.9191 24.4674 17.9191C24.2071 18.3505 24.1073 18.5386 24.4674 19.0199C24.733 19.38 25.5968 20.127 26.1716 20.7963C27.2288 21.9969 28.0416 23.0041 28.2583 23.7011C28.5016 24.3928 28.1425 24.7529 27.4445 24.7529L27.4476 24.754Z" fill="white"/>
</svg>
